<svg width="950" height="686" viewBox="0 0 950 686" fill="none" xmlns="http://www.w3.org/2000/svg">
<path d="M634.185 551.021C592.286 465.824 554.197 318.15 462.783 214.02C392.318 132.61 251.388 159.116 232.344 229.166C232.344 229.166 159.974 210.234 99.0318 212.127C38.0892 214.02 5.71337 221.593 5.71337 221.593L0 234.846C0 234.846 83.7962 215.914 158.07 232.953C219.013 246.206 251.388 270.818 272.337 316.257C293.287 361.695 316.14 515.049 418.981 598.352C519.917 681.656 716.076 685.442 716.076 685.442C716.076 685.442 666.56 619.178 634.185 551.021ZM350.42 265.138C340.898 267.032 329.471 261.352 327.567 251.886C325.662 242.419 331.376 231.06 340.898 229.166C350.42 227.273 361.847 232.953 363.751 242.419C367.56 251.886 361.847 261.352 350.42 265.138Z" fill="#0FA69D"/>
<path d="M729.994 0.5L711.027 34.6224C821.031 167.32 889.309 324.662 912.068 487.691L950 495.274C927.241 315.184 853.273 142.676 729.994 0.5Z" fill="#0FA69D"/>
<path d="M669.586 108.206L648.76 144.24C720.704 240.964 768.036 350.963 790.755 466.652L830.514 474.238C807.795 341.48 752.89 216.309 669.586 108.206Z" fill="#0FA69D"/>
<path d="M610.719 210.863L589.858 248.762C629.683 309.399 658.129 375.722 675.197 443.939L716.918 451.519C696.057 366.247 660.025 284.765 610.719 210.863Z" fill="#0FA69D"/>
</svg>
