<svg width="60" height="56" viewBox="0 0 60 56" fill="none" xmlns="http://www.w3.org/2000/svg">
<mask id="mask0" mask-type="alpha" maskUnits="userSpaceOnUse" x="0" y="32" width="57" height="24">
<path fill-rule="evenodd" clip-rule="evenodd" d="M56.4321 55.8289H0V32.0972H56.4321V55.8289Z" fill="white"/>
</mask>
<g mask="url(#mask0)">
<path d="M37.1855 37.9511H2.8645C1.28186 37.9511 0 36.6418 0 35.0253C0 33.4088 1.28186 32.0995 2.8645 32.0995H37.1855C38.7682 32.0995 40.05 33.4088 40.05 35.0253C40.05 36.6418 38.7682 37.9511 37.1855 37.9511Z" fill="#93C8A2"/>
</g>
<mask id="mask1" mask-type="alpha" maskUnits="userSpaceOnUse" x="0" y="32" width="57" height="24">
<path fill-rule="evenodd" clip-rule="evenodd" d="M56.4321 55.8289H0V32.0972H56.4321V55.8289Z" fill="white"/>
</mask>
<g mask="url(#mask1)">
<path d="M29.8262 55.8728C27.0305 55.8728 24.2691 55.4485 21.6194 54.6096C20.1085 54.1313 19.2631 52.4927 19.731 50.9494C20.1994 49.3987 21.8078 48.5356 23.3152 49.0184C25.4149 49.684 27.6048 50.0205 29.8262 50.0205C39.5462 50.0205 47.9857 43.6496 50.828 34.1627C51.0502 33.4208 51.5521 32.7996 52.2231 32.436C52.8941 32.0724 53.6791 31.9963 54.4051 32.2244C55.9176 32.6925 56.7683 34.331 56.3057 35.8743C52.7222 47.8342 42.0806 55.8728 29.8262 55.8728Z" fill="#43AF79"/>
</g>
<path d="M57.1105 23.7626H22.493C20.8966 23.7626 19.6036 22.4334 19.6036 20.7923C19.6036 19.1512 20.8966 17.822 22.493 17.822H57.1105C58.7069 17.822 59.9999 19.1512 59.9999 20.7923C59.9999 22.4334 58.7069 23.7626 57.1105 23.7626Z" fill="#93C8A2"/>
<path d="M5.88225 23.7515C4.95897 23.7517 4.09037 23.312 3.54137 22.5666C2.99238 21.8213 2.82808 20.8586 3.09861 19.9722C6.741 8.02484 17.5554 0 30.0072 0C32.8505 0 35.6567 0.423821 38.3472 1.2627C39.0847 1.49212 39.7012 2.00634 40.0611 2.69223C40.4211 3.37811 40.4948 4.17947 40.2663 4.91998C40.0385 5.66096 39.5264 6.28048 38.8431 6.64184C38.1597 7.00321 37.3613 7.07673 36.6239 6.84618C34.4916 6.18852 32.2647 5.85239 30.0072 5.85239C20.1316 5.85239 11.5536 12.217 8.66517 21.6945C8.2904 22.9223 7.16192 23.7611 5.88298 23.7625" fill="#43AF79"/>
<path fill-rule="evenodd" clip-rule="evenodd" d="M47.0309 12.8652C48.6157 12.8652 49.9003 11.5809 49.9003 9.99665C49.9003 8.41237 48.6157 7.12805 47.0309 7.12805C45.4462 7.12805 44.1615 8.41237 44.1615 9.99665C44.1615 11.5809 45.4462 12.8652 47.0309 12.8652ZM12.9673 49.3067C14.552 49.3067 15.8367 48.0224 15.8367 46.4381C15.8367 44.8538 14.552 43.5695 12.9673 43.5695C11.3826 43.5695 10.0979 44.8538 10.0979 46.4381C10.0979 48.0224 11.3826 49.3067 12.9673 49.3067Z" fill="#93C8A2"/>
</svg>
